solid Exported from Blender-2.73 (sub 0)
facet normal -1.000000 0.000000 0.000000
outer loop
vertex 0.000000 0.762000 0.000000
vertex 0.000000 0.703996 0.291605
vertex 0.000000 0.747358 0.148659
endloop
endfacet
facet normal -1.000000 0.000000 0.000000
outer loop
vertex 0.000000 0.538815 0.538815
vertex 0.000000 0.633580 0.423345
vertex 0.000000 0.703996 0.291605
endloop
endfacet
facet normal -1.000000 -0.000000 0.000000
outer loop
vertex 0.000000 0.291605 0.703996
vertex 0.000000 0.423344 0.633580
vertex 0.000000 0.538815 0.538815
endloop
endfacet
facet normal -1.000000 -0.000000 0.000000
outer loop
vertex 0.000000 0.000000 0.762000
vertex 0.000000 0.148659 0.747358
vertex 0.000000 0.291605 0.703996
endloop
endfacet
facet normal -1.000000 -0.000000 0.000000
outer loop
vertex 0.000000 -0.291605 0.703996
vertex 0.000000 -0.148659 0.747358
vertex 0.000000 0.000000 0.762000
endloop
endfacet
facet normal -1.000000 0.000000 0.000000
outer loop
vertex 0.000000 -0.538815 0.538815
vertex 0.000000 -0.423344 0.633580
vertex 0.000000 -0.291605 0.703996
endloop
endfacet
facet normal -1.000000 0.000000 0.000000
outer loop
vertex 0.000000 -0.703996 0.291605
vertex 0.000000 -0.633580 0.423344
vertex 0.000000 -0.538815 0.538815
endloop
endfacet
facet normal -1.000000 0.000000 0.000000
outer loop
vertex -0.000000 -0.762000 -0.000000
vertex 0.000000 -0.747358 0.148659
vertex 0.000000 -0.703996 0.291605
endloop
endfacet
facet normal -1.000000 0.000000 0.000000
outer loop
vertex -0.000000 -0.703996 -0.291605
vertex -0.000000 -0.747358 -0.148659
vertex -0.000000 -0.762000 -0.000000
endloop
endfacet
facet normal -1.000000 -0.000000 0.000000
outer loop
vertex -0.000000 -0.538815 -0.538816
vertex -0.000000 -0.633580 -0.423345
vertex -0.000000 -0.703996 -0.291605
endloop
endfacet
facet normal -1.000000 -0.000000 0.000000
outer loop
vertex -0.000000 -0.291604 -0.703996
vertex -0.000000 -0.423344 -0.633580
vertex -0.000000 -0.538815 -0.538816
endloop
endfacet
facet normal -1.000000 -0.000000 0.000000
outer loop
vertex -0.000000 0.000001 -0.762000
vertex -0.000000 -0.148658 -0.747359
vertex -0.000000 -0.291604 -0.703996
endloop
endfacet
facet normal -1.000000 0.000000 0.000000
outer loop
vertex -0.000000 0.291606 -0.703996
vertex -0.000000 0.148660 -0.747358
vertex -0.000000 0.000001 -0.762000
endloop
endfacet
facet normal -1.000000 -0.000000 0.000000
outer loop
vertex -0.000000 0.538816 -0.538815
vertex -0.000000 0.423345 -0.633579
vertex -0.000000 0.291606 -0.703996
endloop
endfacet
facet normal -1.000000 0.000000 0.000000
outer loop
vertex -0.000000 0.703997 -0.291604
vertex -0.000000 0.633580 -0.423344
vertex -0.000000 0.538816 -0.538815
endloop
endfacet
facet normal -1.000000 0.000000 0.000000
outer loop
vertex 0.000000 0.762000 0.000000
vertex -0.000000 0.747359 -0.148658
vertex -0.000000 0.703997 -0.291604
endloop
endfacet
facet normal -1.000000 0.000000 0.000000
outer loop
vertex 0.000000 0.762000 0.000000
vertex 0.000000 0.538815 0.538815
vertex 0.000000 0.703996 0.291605
endloop
endfacet
facet normal -1.000000 -0.000000 0.000000
outer loop
vertex 0.000000 0.000000 0.762000
vertex 0.000000 0.291605 0.703996
vertex 0.000000 0.538815 0.538815
endloop
endfacet
facet normal -1.000000 0.000000 0.000000
outer loop
vertex 0.000000 -0.538815 0.538815
vertex 0.000000 -0.291605 0.703996
vertex 0.000000 0.000000 0.762000
endloop
endfacet
facet normal -1.000000 0.000000 0.000000
outer loop
vertex -0.000000 -0.762000 -0.000000
vertex 0.000000 -0.703996 0.291605
vertex 0.000000 -0.538815 0.538815
endloop
endfacet
facet normal -1.000000 0.000000 0.000000
outer loop
vertex -0.000000 -0.538815 -0.538816
vertex -0.000000 -0.703996 -0.291605
vertex -0.000000 -0.762000 -0.000000
endloop
endfacet
facet normal -1.000000 0.000000 0.000000
outer loop
vertex -0.000000 0.000001 -0.762000
vertex -0.000000 -0.291604 -0.703996
vertex -0.000000 -0.538815 -0.538816
endloop
endfacet
facet normal -1.000000 0.000000 0.000000
outer loop
vertex -0.000000 0.538816 -0.538815
vertex -0.000000 0.291606 -0.703996
vertex -0.000000 0.000001 -0.762000
endloop
endfacet
facet normal -1.000000 -0.000000 0.000000
outer loop
vertex 0.000000 0.762000 0.000000
vertex -0.000000 0.703997 -0.291604
vertex -0.000000 0.538816 -0.538815
endloop
endfacet
facet normal -1.000000 0.000000 0.000000
outer loop
vertex 0.000000 0.762000 0.000000
vertex 0.000000 0.000000 0.762000
vertex 0.000000 0.538815 0.538815
endloop
endfacet
facet normal -1.000000 0.000000 0.000000
outer loop
vertex -0.000000 -0.762000 -0.000000
vertex 0.000000 -0.538815 0.538815
vertex 0.000000 0.000000 0.762000
endloop
endfacet
facet normal -1.000000 -0.000000 0.000000
outer loop
vertex -0.000000 0.000001 -0.762000
vertex -0.000000 -0.538815 -0.538816
vertex -0.000000 -0.762000 -0.000000
endloop
endfacet
facet normal -1.000000 0.000000 0.000000
outer loop
vertex 0.000000 0.762000 0.000000
vertex -0.000000 0.538816 -0.538815
vertex -0.000000 0.000001 -0.762000
endloop
endfacet
facet normal -1.000000 0.000000 0.000000
outer loop
vertex 0.000000 0.762000 0.000000
vertex -0.000000 -0.762000 -0.000000
vertex 0.000000 0.000000 0.762000
endloop
endfacet
facet normal -1.000000 0.000000 0.000000
outer loop
vertex 0.000000 0.762000 0.000000
vertex -0.000000 0.000001 -0.762000
vertex -0.000000 -0.762000 -0.000000
endloop
endfacet
facet normal 1.000000 -0.000001 0.000000
outer loop
vertex 0.152400 0.762000 0.000000
vertex 0.152400 0.703997 -0.291604
vertex 0.152400 0.747359 -0.148658
endloop
endfacet
facet normal 1.000000 -0.000000 0.000000
outer loop
vertex 0.152400 0.538816 -0.538815
vertex 0.152400 0.633580 -0.423344
vertex 0.152400 0.703997 -0.291604
endloop
endfacet
facet normal 1.000000 0.000000 0.000000
outer loop
vertex 0.152400 0.291606 -0.703996
vertex 0.152400 0.423345 -0.633579
vertex 0.152400 0.538816 -0.538815
endloop
endfacet
facet normal 1.000000 0.000000 0.000000
outer loop
vertex 0.152400 0.000001 -0.762000
vertex 0.152400 0.148660 -0.747358
vertex 0.152400 0.291606 -0.703996
endloop
endfacet
facet normal 1.000000 0.000000 0.000000
outer loop
vertex 0.152400 -0.291604 -0.703996
vertex 0.152400 -0.148658 -0.747359
vertex 0.152400 0.000001 -0.762000
endloop
endfacet
facet normal 1.000000 0.000000 0.000000
outer loop
vertex 0.152400 -0.538815 -0.538816
vertex 0.152400 -0.423344 -0.633580
vertex 0.152400 -0.291604 -0.703996
endloop
endfacet
facet normal 1.000000 0.000000 0.000000
outer loop
vertex 0.152400 -0.703996 -0.291605
vertex 0.152400 -0.633580 -0.423345
vertex 0.152400 -0.538815 -0.538816
endloop
endfacet
facet normal 1.000000 0.000001 0.000000
outer loop
vertex 0.152400 -0.762000 -0.000000
vertex 0.152400 -0.747358 -0.148659
vertex 0.152400 -0.703996 -0.291605
endloop
endfacet
facet normal 1.000000 -0.000001 0.000000
outer loop
vertex 0.152400 -0.703996 0.291605
vertex 0.152400 -0.747358 0.148659
vertex 0.152400 -0.762000 -0.000000
endloop
endfacet
facet normal 1.000000 -0.000000 0.000000
outer loop
vertex 0.152400 -0.538815 0.538815
vertex 0.152400 -0.633580 0.423344
vertex 0.152400 -0.703996 0.291605
endloop
endfacet
facet normal 1.000000 0.000000 0.000000
outer loop
vertex 0.152400 -0.291605 0.703996
vertex 0.152400 -0.423344 0.633580
vertex 0.152400 -0.538815 0.538815
endloop
endfacet
facet normal 1.000000 0.000000 0.000000
outer loop
vertex 0.152400 0.000000 0.762000
vertex 0.152400 -0.148659 0.747358
vertex 0.152400 -0.291605 0.703996
endloop
endfacet
facet normal 1.000000 0.000000 0.000000
outer loop
vertex 0.152400 0.291605 0.703996
vertex 0.152400 0.148659 0.747358
vertex 0.152400 0.000000 0.762000
endloop
endfacet
facet normal 1.000000 0.000000 0.000000
outer loop
vertex 0.152400 0.538815 0.538815
vertex 0.152400 0.423344 0.633580
vertex 0.152400 0.291605 0.703996
endloop
endfacet
facet normal 1.000000 0.000000 0.000000
outer loop
vertex 0.152400 0.703996 0.291605
vertex 0.152400 0.633580 0.423345
vertex 0.152400 0.538815 0.538815
endloop
endfacet
facet normal 1.000000 0.000001 0.000000
outer loop
vertex 0.152400 0.762000 0.000000
vertex 0.152400 0.747358 0.148659
vertex 0.152400 0.703996 0.291605
endloop
endfacet
facet normal 1.000000 -0.000000 -0.000000
outer loop
vertex 0.152400 0.762000 0.000000
vertex 0.152400 0.538816 -0.538815
vertex 0.152400 0.703997 -0.291604
endloop
endfacet
facet normal 1.000000 0.000000 0.000000
outer loop
vertex 0.152400 0.000001 -0.762000
vertex 0.152400 0.291606 -0.703996
vertex 0.152400 0.538816 -0.538815
endloop
endfacet
facet normal 1.000000 0.000000 0.000000
outer loop
vertex 0.152400 -0.538815 -0.538816
vertex 0.152400 -0.291604 -0.703996
vertex 0.152400 0.000001 -0.762000
endloop
endfacet
facet normal 1.000000 0.000000 -0.000000
outer loop
vertex 0.152400 -0.762000 -0.000000
vertex 0.152400 -0.703996 -0.291605
vertex 0.152400 -0.538815 -0.538816
endloop
endfacet
facet normal 1.000000 -0.000000 -0.000000
outer loop
vertex 0.152400 -0.538815 0.538815
vertex 0.152400 -0.703996 0.291605
vertex 0.152400 -0.762000 -0.000000
endloop
endfacet
facet normal 1.000000 0.000000 0.000000
outer loop
vertex 0.152400 0.000000 0.762000
vertex 0.152400 -0.291605 0.703996
vertex 0.152400 -0.538815 0.538815
endloop
endfacet
facet normal 1.000000 0.000000 0.000000
outer loop
vertex 0.152400 0.538815 0.538815
vertex 0.152400 0.291605 0.703996
vertex 0.152400 0.000000 0.762000
endloop
endfacet
facet normal 1.000000 0.000000 -0.000000
outer loop
vertex 0.152400 0.762000 0.000000
vertex 0.152400 0.703996 0.291605
vertex 0.152400 0.538815 0.538815
endloop
endfacet
facet normal 1.000000 0.000000 -0.000000
outer loop
vertex 0.152400 0.762000 0.000000
vertex 0.152400 0.000001 -0.762000
vertex 0.152400 0.538816 -0.538815
endloop
endfacet
facet normal 1.000000 -0.000000 -0.000000
outer loop
vertex 0.152400 -0.762000 -0.000000
vertex 0.152400 -0.538815 -0.538816
vertex 0.152400 0.000001 -0.762000
endloop
endfacet
facet normal 1.000000 0.000000 -0.000000
outer loop
vertex 0.152400 0.000000 0.762000
vertex 0.152400 -0.538815 0.538815
vertex 0.152400 -0.762000 -0.000000
endloop
endfacet
facet normal 1.000000 -0.000000 -0.000000
outer loop
vertex 0.152400 0.762000 0.000000
vertex 0.152400 0.538815 0.538815
vertex 0.152400 0.000000 0.762000
endloop
endfacet
facet normal 1.000000 0.000000 -0.000000
outer loop
vertex 0.152400 0.762000 0.000000
vertex 0.152400 -0.762000 -0.000000
vertex 0.152400 0.000001 -0.762000
endloop
endfacet
facet normal 1.000000 0.000000 -0.000000
outer loop
vertex 0.152400 0.762000 0.000000
vertex 0.152400 0.000000 0.762000
vertex 0.152400 -0.762000 -0.000000
endloop
endfacet
facet normal 0.000000 0.773011 -0.634392
outer loop
vertex -0.000000 0.538816 -0.538815
vertex -0.000000 0.633580 -0.423344
vertex 0.152400 0.633580 -0.423344
endloop
endfacet
facet normal 0.000000 0.773011 -0.634392
outer loop
vertex 0.152400 0.633580 -0.423344
vertex 0.152400 0.538816 -0.538815
vertex -0.000000 0.538816 -0.538815
endloop
endfacet
facet normal -0.000000 -0.956940 -0.290285
outer loop
vertex -0.000000 -0.747358 -0.148659
vertex -0.000000 -0.703996 -0.291605
vertex 0.152400 -0.703996 -0.291605
endloop
endfacet
facet normal 0.000000 -0.956940 -0.290285
outer loop
vertex 0.152400 -0.703996 -0.291605
vertex 0.152400 -0.747358 -0.148659
vertex -0.000000 -0.747358 -0.148659
endloop
endfacet
facet normal 0.000000 0.290285 0.956940
outer loop
vertex 0.000000 0.291605 0.703996
vertex 0.000000 0.148659 0.747358
vertex 0.152400 0.148659 0.747358
endloop
endfacet
facet normal -0.000000 0.290285 0.956940
outer loop
vertex 0.152400 0.148659 0.747358
vertex 0.152400 0.291605 0.703996
vertex 0.000000 0.291605 0.703996
endloop
endfacet
facet normal 0.000000 0.471398 -0.881921
outer loop
vertex -0.000000 0.291606 -0.703996
vertex -0.000000 0.423345 -0.633579
vertex 0.152400 0.423345 -0.633579
endloop
endfacet
facet normal 0.000000 0.471398 -0.881921
outer loop
vertex 0.152400 0.423345 -0.633579
vertex 0.152400 0.291606 -0.703996
vertex -0.000000 0.291606 -0.703996
endloop
endfacet
facet normal 0.000000 0.634393 0.773010
outer loop
vertex 0.000000 0.538815 0.538815
vertex 0.000000 0.423344 0.633580
vertex 0.152400 0.423344 0.633580
endloop
endfacet
facet normal -0.000000 0.634393 0.773010
outer loop
vertex 0.152400 0.423344 0.633580
vertex 0.152400 0.538815 0.538815
vertex 0.000000 0.538815 0.538815
endloop
endfacet
facet normal 0.000000 -0.995185 0.098017
outer loop
vertex 0.000000 -0.747358 0.148659
vertex -0.000000 -0.762000 -0.000000
vertex 0.152400 -0.762000 -0.000000
endloop
endfacet
facet normal 0.000000 -0.995185 0.098017
outer loop
vertex 0.152400 -0.762000 -0.000000
vertex 0.152400 -0.747358 0.148659
vertex 0.000000 -0.747358 0.148659
endloop
endfacet
facet normal 0.000000 0.098018 -0.995185
outer loop
vertex -0.000000 0.000001 -0.762000
vertex -0.000000 0.148660 -0.747358
vertex 0.152400 0.148660 -0.747358
endloop
endfacet
facet normal 0.000000 0.098018 -0.995185
outer loop
vertex 0.152400 0.148660 -0.747358
vertex 0.152400 0.000001 -0.762000
vertex -0.000000 0.000001 -0.762000
endloop
endfacet
facet normal 0.000000 0.881921 0.471397
outer loop
vertex 0.000000 0.703996 0.291605
vertex 0.000000 0.633580 0.423345
vertex 0.152400 0.633580 0.423345
endloop
endfacet
facet normal -0.000000 0.881921 0.471397
outer loop
vertex 0.152400 0.633580 0.423345
vertex 0.152400 0.703996 0.291605
vertex 0.000000 0.703996 0.291605
endloop
endfacet
facet normal 0.000000 -0.881921 0.471397
outer loop
vertex 0.000000 -0.633580 0.423344
vertex 0.000000 -0.703996 0.291605
vertex 0.152400 -0.703996 0.291605
endloop
endfacet
facet normal 0.000000 -0.881921 0.471397
outer loop
vertex 0.152400 -0.703996 0.291605
vertex 0.152400 -0.633580 0.423344
vertex 0.000000 -0.633580 0.423344
endloop
endfacet
facet normal -0.000000 -0.290284 -0.956941
outer loop
vertex -0.000000 -0.291604 -0.703996
vertex -0.000000 -0.148658 -0.747359
vertex 0.152400 -0.148658 -0.747359
endloop
endfacet
facet normal 0.000000 -0.290284 -0.956941
outer loop
vertex 0.152400 -0.148658 -0.747359
vertex 0.152400 -0.291604 -0.703996
vertex -0.000000 -0.291604 -0.703996
endloop
endfacet
facet normal 0.000000 0.995185 0.098017
outer loop
vertex 0.000000 0.762000 0.000000
vertex 0.000000 0.747358 0.148659
vertex 0.152400 0.747358 0.148659
endloop
endfacet
facet normal -0.000000 0.995185 0.098017
outer loop
vertex 0.152400 0.747358 0.148659
vertex 0.152400 0.762000 0.000000
vertex 0.000000 0.762000 0.000000
endloop
endfacet
facet normal 0.000000 -0.634393 0.773010
outer loop
vertex 0.000000 -0.423344 0.633580
vertex 0.000000 -0.538815 0.538815
vertex 0.152400 -0.538815 0.538815
endloop
endfacet
facet normal 0.000000 -0.634393 0.773010
outer loop
vertex 0.152400 -0.538815 0.538815
vertex 0.152400 -0.423344 0.633580
vertex 0.000000 -0.423344 0.633580
endloop
endfacet
facet normal 0.000000 0.995185 -0.098016
outer loop
vertex -0.000000 0.747359 -0.148658
vertex 0.000000 0.762000 0.000000
vertex 0.152400 0.762000 0.000000
endloop
endfacet
facet normal 0.000000 0.995185 -0.098016
outer loop
vertex 0.152400 0.762000 0.000000
vertex 0.152400 0.747359 -0.148658
vertex -0.000000 0.747359 -0.148658
endloop
endfacet
facet normal -0.000000 -0.634392 -0.773011
outer loop
vertex -0.000000 -0.538815 -0.538816
vertex -0.000000 -0.423344 -0.633580
vertex 0.152400 -0.423344 -0.633580
endloop
endfacet
facet normal 0.000000 -0.634392 -0.773011
outer loop
vertex 0.152400 -0.423344 -0.633580
vertex 0.152400 -0.538815 -0.538816
vertex -0.000000 -0.538815 -0.538816
endloop
endfacet
facet normal 0.000000 -0.290285 0.956940
outer loop
vertex 0.000000 -0.148659 0.747358
vertex 0.000000 -0.291605 0.703996
vertex 0.152400 -0.291605 0.703996
endloop
endfacet
facet normal 0.000000 -0.290285 0.956940
outer loop
vertex 0.152400 -0.291605 0.703996
vertex 0.152400 -0.148659 0.747358
vertex 0.000000 -0.148659 0.747358
endloop
endfacet
facet normal 0.000000 0.881922 -0.471395
outer loop
vertex -0.000000 0.633580 -0.423344
vertex -0.000000 0.703997 -0.291604
vertex 0.152400 0.703997 -0.291604
endloop
endfacet
facet normal 0.000000 0.881922 -0.471395
outer loop
vertex 0.152400 0.703997 -0.291604
vertex 0.152400 0.633580 -0.423344
vertex -0.000000 0.633580 -0.423344
endloop
endfacet
facet normal -0.000000 -0.881921 -0.471397
outer loop
vertex -0.000000 -0.703996 -0.291605
vertex -0.000000 -0.633580 -0.423345
vertex 0.152400 -0.633580 -0.423345
endloop
endfacet
facet normal 0.000000 -0.881921 -0.471397
outer loop
vertex 0.152400 -0.633580 -0.423345
vertex 0.152400 -0.703996 -0.291605
vertex -0.000000 -0.703996 -0.291605
endloop
endfacet
facet normal 0.000000 0.098017 0.995185
outer loop
vertex 0.000000 0.148659 0.747358
vertex 0.000000 0.000000 0.762000
vertex 0.152400 0.000000 0.762000
endloop
endfacet
facet normal -0.000000 0.098017 0.995185
outer loop
vertex 0.152400 0.000000 0.762000
vertex 0.152400 0.148659 0.747358
vertex 0.000000 0.148659 0.747358
endloop
endfacet
facet normal 0.000000 0.634394 -0.773010
outer loop
vertex -0.000000 0.423345 -0.633579
vertex -0.000000 0.538816 -0.538815
vertex 0.152400 0.538816 -0.538815
endloop
endfacet
facet normal 0.000000 0.634394 -0.773010
outer loop
vertex 0.152400 0.538816 -0.538815
vertex 0.152400 0.423345 -0.633579
vertex -0.000000 0.423345 -0.633579
endloop
endfacet
facet normal -0.000000 -0.995185 -0.098018
outer loop
vertex -0.000000 -0.762000 -0.000000
vertex -0.000000 -0.747358 -0.148659
vertex 0.152400 -0.747358 -0.148659
endloop
endfacet
facet normal 0.000000 -0.995185 -0.098018
outer loop
vertex 0.152400 -0.747358 -0.148659
vertex 0.152400 -0.762000 -0.000000
vertex -0.000000 -0.762000 -0.000000
endloop
endfacet
facet normal 0.000000 0.471396 0.881921
outer loop
vertex 0.000000 0.423344 0.633580
vertex 0.000000 0.291605 0.703996
vertex 0.152400 0.291605 0.703996
endloop
endfacet
facet normal -0.000000 0.471396 0.881921
outer loop
vertex 0.152400 0.291605 0.703996
vertex 0.152400 0.423344 0.633580
vertex 0.000000 0.423344 0.633580
endloop
endfacet
facet normal 0.000000 0.290286 -0.956940
outer loop
vertex -0.000000 0.148660 -0.747358
vertex -0.000000 0.291606 -0.703996
vertex 0.152400 0.291606 -0.703996
endloop
endfacet
facet normal 0.000000 0.290286 -0.956940
outer loop
vertex 0.152400 0.291606 -0.703996
vertex 0.152400 0.148660 -0.747358
vertex -0.000000 0.148660 -0.747358
endloop
endfacet
facet normal 0.000000 0.773010 0.634393
outer loop
vertex 0.000000 0.633580 0.423345
vertex 0.000000 0.538815 0.538815
vertex 0.152400 0.538815 0.538815
endloop
endfacet
facet normal -0.000000 0.773010 0.634393
outer loop
vertex 0.152400 0.538815 0.538815
vertex 0.152400 0.633580 0.423345
vertex 0.000000 0.633580 0.423345
endloop
endfacet
facet normal 0.000000 -0.956940 0.290284
outer loop
vertex 0.000000 -0.703996 0.291605
vertex 0.000000 -0.747358 0.148659
vertex 0.152400 -0.747358 0.148659
endloop
endfacet
facet normal 0.000000 -0.956940 0.290284
outer loop
vertex 0.152400 -0.747358 0.148659
vertex 0.152400 -0.703996 0.291605
vertex 0.000000 -0.703996 0.291605
endloop
endfacet
facet normal -0.000000 -0.098016 -0.995185
outer loop
vertex -0.000000 -0.148658 -0.747359
vertex -0.000000 0.000001 -0.762000
vertex 0.152400 0.000001 -0.762000
endloop
endfacet
facet normal 0.000000 -0.098016 -0.995185
outer loop
vertex 0.152400 0.000001 -0.762000
vertex 0.152400 -0.148658 -0.747359
vertex -0.000000 -0.148658 -0.747359
endloop
endfacet
facet normal 0.000000 0.956940 0.290285
outer loop
vertex 0.000000 0.747358 0.148659
vertex 0.000000 0.703996 0.291605
vertex 0.152400 0.703996 0.291605
endloop
endfacet
facet normal -0.000000 0.956940 0.290285
outer loop
vertex 0.152400 0.703996 0.291605
vertex 0.152400 0.747358 0.148659
vertex 0.000000 0.747358 0.148659
endloop
endfacet
facet normal 0.000000 -0.773010 0.634393
outer loop
vertex 0.000000 -0.538815 0.538815
vertex 0.000000 -0.633580 0.423344
vertex 0.152400 -0.633580 0.423344
endloop
endfacet
facet normal 0.000000 -0.773010 0.634393
outer loop
vertex 0.152400 -0.633580 0.423344
vertex 0.152400 -0.538815 0.538815
vertex 0.000000 -0.538815 0.538815
endloop
endfacet
facet normal -0.000000 -0.471396 -0.881921
outer loop
vertex -0.000000 -0.423344 -0.633580
vertex -0.000000 -0.291604 -0.703996
vertex 0.152400 -0.291604 -0.703996
endloop
endfacet
facet normal 0.000000 -0.471396 -0.881921
outer loop
vertex 0.152400 -0.291604 -0.703996
vertex 0.152400 -0.423344 -0.633580
vertex -0.000000 -0.423344 -0.633580
endloop
endfacet
facet normal 0.000000 -0.471396 0.881921
outer loop
vertex 0.000000 -0.291605 0.703996
vertex 0.000000 -0.423344 0.633580
vertex 0.152400 -0.423344 0.633580
endloop
endfacet
facet normal 0.000000 -0.471396 0.881921
outer loop
vertex 0.152400 -0.423344 0.633580
vertex 0.152400 -0.291605 0.703996
vertex 0.000000 -0.291605 0.703996
endloop
endfacet
facet normal 0.000000 0.956941 -0.290283
outer loop
vertex -0.000000 0.703997 -0.291604
vertex -0.000000 0.747359 -0.148658
vertex 0.152400 0.747359 -0.148658
endloop
endfacet
facet normal 0.000000 0.956941 -0.290283
outer loop
vertex 0.152400 0.747359 -0.148658
vertex 0.152400 0.703997 -0.291604
vertex -0.000000 0.703997 -0.291604
endloop
endfacet
facet normal -0.000000 -0.773010 -0.634394
outer loop
vertex -0.000000 -0.633580 -0.423345
vertex -0.000000 -0.538815 -0.538816
vertex 0.152400 -0.538815 -0.538816
endloop
endfacet
facet normal 0.000000 -0.773010 -0.634394
outer loop
vertex 0.152400 -0.538815 -0.538816
vertex 0.152400 -0.633580 -0.423345
vertex -0.000000 -0.633580 -0.423345
endloop
endfacet
facet normal 0.000000 -0.098017 0.995185
outer loop
vertex 0.000000 0.000000 0.762000
vertex 0.000000 -0.148659 0.747358
vertex 0.152400 -0.148659 0.747358
endloop
endfacet
facet normal 0.000000 -0.098017 0.995185
outer loop
vertex 0.152400 -0.148659 0.747358
vertex 0.152400 0.000000 0.762000
vertex 0.000000 0.000000 0.762000
endloop
endfacet
endsolid Exported from Blender-2.73 (sub 0)
