solid Rod_Part
   facet normal 0.000000e+000 0.000000e+000 -1.000000e+000
      outer loop
         vertex 1.500000e+000 1.500000e+000 0.000000e+000
         vertex 1.500000e+000 -1.500000e+000 0.000000e+000
         vertex -1.500000e+000 1.500000e+000 0.000000e+000
      endloop
   endfacet
   facet normal 0.000000e+000 0.000000e+000 -1.000000e+000
      outer loop
         vertex -1.500000e+000 1.500000e+000 0.000000e+000
         vertex 1.500000e+000 -1.500000e+000 0.000000e+000
         vertex -1.500000e+000 -1.500000e+000 0.000000e+000
      endloop
   endfacet
   facet normal 9.984846e-001 0.000000e+000 5.503191e-002
      outer loop
         vertex 1.500000e+000 -1.500000e+000 4.592426e-016
         vertex 1.500000e+000 1.500000e+000 4.592426e-016
         vertex 1.479542e+000 1.500000e+000 2.468919e-001
      endloop
   endfacet
   facet normal 9.939246e-001 0.000000e+000 1.100638e-001
      outer loop
         vertex 1.500000e+000 -1.500000e+000 4.592426e-016
         vertex 1.479542e+000 1.500000e+000 2.468919e-001
         vertex 1.479542e+000 -1.500000e+000 2.468919e-001
      endloop
   endfacet
   facet normal 9.758086e-001 0.000000e+000 2.186265e-001
      outer loop
         vertex 1.479542e+000 -1.500000e+000 2.468919e-001
         vertex 1.479542e+000 1.500000e+000 2.468919e-001
         vertex 1.418726e+000 1.500000e+000 4.870492e-001
      endloop
   endfacet
   facet normal 9.622528e-001 0.000000e+000 2.721573e-001
      outer loop
         vertex 1.479542e+000 -1.500000e+000 2.468919e-001
         vertex 1.418726e+000 1.500000e+000 4.870492e-001
         vertex 1.418726e+000 -1.500000e+000 4.870492e-001
      endloop
   endfacet
   facet normal 9.265151e-001 0.000000e+000 3.762575e-001
      outer loop
         vertex 1.418726e+000 -1.500000e+000 4.870492e-001
         vertex 1.418726e+000 1.500000e+000 4.870492e-001
         vertex 1.319211e+000 1.500000e+000 7.139211e-001
      endloop
   endfacet
   facet normal 9.043333e-001 0.000000e+000 4.268270e-001
      outer loop
         vertex 1.418726e+000 -1.500000e+000 4.870492e-001
         vertex 1.319211e+000 1.500000e+000 7.139211e-001
         vertex 1.319211e+000 -1.500000e+000 7.139211e-001
      endloop
   endfacet
   facet normal 8.519487e-001 0.000000e+000 5.236253e-001
      outer loop
         vertex 1.319211e+000 -1.500000e+000 7.139211e-001
         vertex 1.319211e+000 1.500000e+000 7.139211e-001
         vertex 1.183711e+000 1.500000e+000 9.213191e-001
      endloop
   endfacet
   facet normal 8.217459e-001 0.000000e+000 5.698540e-001
      outer loop
         vertex 1.319211e+000 -1.500000e+000 7.139211e-001
         vertex 1.183711e+000 1.500000e+000 9.213191e-001
         vertex 1.183711e+000 -1.500000e+000 9.213191e-001
      endloop
   endfacet
   facet normal 7.541434e-001 0.000000e+000 6.567098e-001
      outer loop
         vertex 1.183711e+000 -1.500000e+000 9.213191e-001
         vertex 1.183711e+000 1.500000e+000 9.213191e-001
         vertex 1.015922e+000 1.500000e+000 1.103586e+000
      endloop
   endfacet
   facet normal 7.167435e-001 0.000000e+000 6.973369e-001
      outer loop
         vertex 1.183711e+000 -1.500000e+000 9.213191e-001
         vertex 1.015922e+000 1.500000e+000 1.103586e+000
         vertex 1.015922e+000 -1.500000e+000 1.103586e+000
      endloop
   endfacet
   facet normal 6.357669e-001 0.000000e+000 7.718811e-001
      outer loop
         vertex 1.015922e+000 -1.500000e+000 1.103586e+000
         vertex 1.015922e+000 1.500000e+000 1.103586e+000
         vertex 8.204222e-001 1.500000e+000 1.255750e+000
      endloop
   endfacet
   facet normal 5.921901e-001 0.000000e+000 8.057982e-001
      outer loop
         vertex 1.015922e+000 -1.500000e+000 1.103586e+000
         vertex 8.204222e-001 1.500000e+000 1.255750e+000
         vertex 8.204222e-001 -1.500000e+000 1.255750e+000
      endloop
   endfacet
   facet normal 5.000484e-001 0.000000e+000 8.659974e-001
      outer loop
         vertex 8.204222e-001 -1.500000e+000 1.255750e+000
         vertex 8.204222e-001 1.500000e+000 1.255750e+000
         vertex 6.025431e-001 1.500000e+000 1.373660e+000
      endloop
   endfacet
   facet normal 4.514834e-001 0.000000e+000 8.922795e-001
      outer loop
         vertex 8.204222e-001 -1.500000e+000 1.255750e+000
         vertex 6.025431e-001 1.500000e+000 1.373660e+000
         vertex 6.025431e-001 -1.500000e+000 1.373660e+000
      endloop
   endfacet
   facet normal 3.506899e-001 0.000000e+000 9.364916e-001
      outer loop
         vertex 6.025431e-001 -1.500000e+000 1.373660e+000
         vertex 6.025431e-001 1.500000e+000 1.373660e+000
         vertex 3.682282e-001 1.500000e+000 1.454100e+000
      endloop
   endfacet
   facet normal 2.984614e-001 0.000000e+000 9.544217e-001
      outer loop
         vertex 6.025431e-001 -1.500000e+000 1.373660e+000
         vertex 3.682282e-001 1.500000e+000 1.454100e+000
         vertex 3.682282e-001 -1.500000e+000 1.454100e+000
      endloop
   endfacet
   facet normal 1.917655e-001 0.000000e+000 9.814408e-001
      outer loop
         vertex 3.682282e-001 -1.500000e+000 1.454100e+000
         vertex 3.682282e-001 1.500000e+000 1.454100e+000
         vertex 1.238690e-001 1.500000e+000 1.494877e+000
      endloop
   endfacet
   facet normal 1.372982e-001 0.000000e+000 9.905298e-001
      outer loop
         vertex 3.682282e-001 -1.500000e+000 1.454100e+000
         vertex 1.238690e-001 1.500000e+000 1.494877e+000
         vertex 1.238690e-001 -1.500000e+000 1.494877e+000
      endloop
   endfacet
   facet normal 2.761026e-002 0.000000e+000 9.996188e-001
      outer loop
         vertex 1.238690e-001 -1.500000e+000 1.494877e+000
         vertex 1.238690e-001 1.500000e+000 1.494877e+000
         vertex -1.238690e-001 1.500000e+000 1.494877e+000
      endloop
   endfacet
   facet normal -2.761026e-002 0.000000e+000 9.996188e-001
      outer loop
         vertex 1.238690e-001 -1.500000e+000 1.494877e+000
         vertex -1.238690e-001 1.500000e+000 1.494877e+000
         vertex -1.238690e-001 -1.500000e+000 1.494877e+000
      endloop
   endfacet
   facet normal -1.372982e-001 0.000000e+000 9.905298e-001
      outer loop
         vertex -1.238690e-001 -1.500000e+000 1.494877e+000
         vertex -1.238690e-001 1.500000e+000 1.494877e+000
         vertex -3.682282e-001 1.500000e+000 1.454100e+000
      endloop
   endfacet
   facet normal -1.917655e-001 0.000000e+000 9.814408e-001
      outer loop
         vertex -1.238690e-001 -1.500000e+000 1.494877e+000
         vertex -3.682282e-001 1.500000e+000 1.454100e+000
         vertex -3.682282e-001 -1.500000e+000 1.454100e+000
      endloop
   endfacet
   facet normal -2.984614e-001 0.000000e+000 9.544217e-001
      outer loop
         vertex -3.682282e-001 -1.500000e+000 1.454100e+000
         vertex -3.682282e-001 1.500000e+000 1.454100e+000
         vertex -6.025431e-001 1.500000e+000 1.373660e+000
      endloop
   endfacet
   facet normal -3.506899e-001 0.000000e+000 9.364916e-001
      outer loop
         vertex -3.682282e-001 -1.500000e+000 1.454100e+000
         vertex -6.025431e-001 1.500000e+000 1.373660e+000
         vertex -6.025431e-001 -1.500000e+000 1.373660e+000
      endloop
   endfacet
   facet normal -4.514834e-001 0.000000e+000 8.922795e-001
      outer loop
         vertex -6.025431e-001 -1.500000e+000 1.373660e+000
         vertex -6.025431e-001 1.500000e+000 1.373660e+000
         vertex -8.204222e-001 1.500000e+000 1.255750e+000
      endloop
   endfacet
   facet normal -5.000484e-001 0.000000e+000 8.659974e-001
      outer loop
         vertex -6.025431e-001 -1.500000e+000 1.373660e+000
         vertex -8.204222e-001 1.500000e+000 1.255750e+000
         vertex -8.204222e-001 -1.500000e+000 1.255750e+000
      endloop
   endfacet
   facet normal -5.921901e-001 0.000000e+000 8.057982e-001
      outer loop
         vertex -8.204222e-001 -1.500000e+000 1.255750e+000
         vertex -8.204222e-001 1.500000e+000 1.255750e+000
         vertex -1.015922e+000 1.500000e+000 1.103586e+000
      endloop
   endfacet
   facet normal -6.357669e-001 0.000000e+000 7.718811e-001
      outer loop
         vertex -8.204222e-001 -1.500000e+000 1.255750e+000
         vertex -1.015922e+000 1.500000e+000 1.103586e+000
         vertex -1.015922e+000 -1.500000e+000 1.103586e+000
      endloop
   endfacet
   facet normal -7.167435e-001 0.000000e+000 6.973369e-001
      outer loop
         vertex -1.015922e+000 -1.500000e+000 1.103586e+000
         vertex -1.015922e+000 1.500000e+000 1.103586e+000
         vertex -1.183711e+000 1.500000e+000 9.213191e-001
      endloop
   endfacet
   facet normal -7.541434e-001 0.000000e+000 6.567098e-001
      outer loop
         vertex -1.015922e+000 -1.500000e+000 1.103586e+000
         vertex -1.183711e+000 1.500000e+000 9.213191e-001
         vertex -1.183711e+000 -1.500000e+000 9.213191e-001
      endloop
   endfacet
   facet normal -8.217459e-001 0.000000e+000 5.698540e-001
      outer loop
         vertex -1.183711e+000 -1.500000e+000 9.213191e-001
         vertex -1.183711e+000 1.500000e+000 9.213191e-001
         vertex -1.319211e+000 1.500000e+000 7.139211e-001
      endloop
   endfacet
   facet normal -8.519487e-001 0.000000e+000 5.236253e-001
      outer loop
         vertex -1.183711e+000 -1.500000e+000 9.213191e-001
         vertex -1.319211e+000 1.500000e+000 7.139211e-001
         vertex -1.319211e+000 -1.500000e+000 7.139211e-001
      endloop
   endfacet
   facet normal -9.043333e-001 0.000000e+000 4.268270e-001
      outer loop
         vertex -1.319211e+000 -1.500000e+000 7.139211e-001
         vertex -1.319211e+000 1.500000e+000 7.139211e-001
         vertex -1.418726e+000 1.500000e+000 4.870492e-001
      endloop
   endfacet
   facet normal -9.265151e-001 0.000000e+000 3.762575e-001
      outer loop
         vertex -1.319211e+000 -1.500000e+000 7.139211e-001
         vertex -1.418726e+000 1.500000e+000 4.870492e-001
         vertex -1.418726e+000 -1.500000e+000 4.870492e-001
      endloop
   endfacet
   facet normal -9.622528e-001 0.000000e+000 2.721573e-001
      outer loop
         vertex -1.418726e+000 -1.500000e+000 4.870492e-001
         vertex -1.418726e+000 1.500000e+000 4.870492e-001
         vertex -1.479542e+000 1.500000e+000 2.468919e-001
      endloop
   endfacet
   facet normal -9.758086e-001 0.000000e+000 2.186265e-001
      outer loop
         vertex -1.418726e+000 -1.500000e+000 4.870492e-001
         vertex -1.479542e+000 1.500000e+000 2.468919e-001
         vertex -1.479542e+000 -1.500000e+000 2.468919e-001
      endloop
   endfacet
   facet normal -9.939246e-001 0.000000e+000 1.100638e-001
      outer loop
         vertex -1.479542e+000 -1.500000e+000 2.468919e-001
         vertex -1.479542e+000 1.500000e+000 2.468919e-001
         vertex -1.500000e+000 1.500000e+000 -2.755455e-016
      endloop
   endfacet
   facet normal -9.984846e-001 0.000000e+000 5.503191e-002
      outer loop
         vertex -1.479542e+000 -1.500000e+000 2.468919e-001
         vertex -1.500000e+000 1.500000e+000 -2.755455e-016
         vertex -1.500000e+000 -1.500000e+000 -2.755455e-016
      endloop
   endfacet
   facet normal 0.000000e+000 -1.000000e+000 0.000000e+000
      outer loop
         vertex 1.479542e+000 -1.500000e+000 2.468919e-001
         vertex -3.682282e-001 -1.500000e+000 1.454100e+000
         vertex 1.500000e+000 -1.500000e+000 4.592426e-016
      endloop
   endfacet
   facet normal 0.000000e+000 -1.000000e+000 0.000000e+000
      outer loop
         vertex 1.500000e+000 -1.500000e+000 4.592426e-016
         vertex -3.682282e-001 -1.500000e+000 1.454100e+000
         vertex -6.025431e-001 -1.500000e+000 1.373660e+000
      endloop
   endfacet
   facet normal 0.000000e+000 -1.000000e+000 0.000000e+000
      outer loop
         vertex 1.500000e+000 -1.500000e+000 4.592426e-016
         vertex -6.025431e-001 -1.500000e+000 1.373660e+000
         vertex -8.204222e-001 -1.500000e+000 1.255750e+000
      endloop
   endfacet
   facet normal 0.000000e+000 -1.000000e+000 0.000000e+000
      outer loop
         vertex 1.479542e+000 -1.500000e+000 2.468919e-001
         vertex 1.418726e+000 -1.500000e+000 4.870492e-001
         vertex -3.682282e-001 -1.500000e+000 1.454100e+000
      endloop
   endfacet
   facet normal 0.000000e+000 -1.000000e+000 0.000000e+000
      outer loop
         vertex -3.682282e-001 -1.500000e+000 1.454100e+000
         vertex 1.418726e+000 -1.500000e+000 4.870492e-001
         vertex 1.319211e+000 -1.500000e+000 7.139211e-001
      endloop
   endfacet
   facet normal 0.000000e+000 -1.000000e+000 0.000000e+000
      outer loop
         vertex -3.682282e-001 -1.500000e+000 1.454100e+000
         vertex 1.319211e+000 -1.500000e+000 7.139211e-001
         vertex 1.183711e+000 -1.500000e+000 9.213191e-001
      endloop
   endfacet
   facet normal 0.000000e+000 -1.000000e+000 0.000000e+000
      outer loop
         vertex -8.204222e-001 -1.500000e+000 1.255750e+000
         vertex -1.015922e+000 -1.500000e+000 1.103586e+000
         vertex 1.500000e+000 -1.500000e+000 4.592426e-016
      endloop
   endfacet
   facet normal 0.000000e+000 -1.000000e+000 0.000000e+000
      outer loop
         vertex 1.500000e+000 -1.500000e+000 4.592426e-016
         vertex -1.015922e+000 -1.500000e+000 1.103586e+000
         vertex -1.183711e+000 -1.500000e+000 9.213191e-001
      endloop
   endfacet
   facet normal 0.000000e+000 -1.000000e+000 0.000000e+000
      outer loop
         vertex 1.500000e+000 -1.500000e+000 4.592426e-016
         vertex -1.183711e+000 -1.500000e+000 9.213191e-001
         vertex -1.319211e+000 -1.500000e+000 7.139211e-001
      endloop
   endfacet
   facet normal 0.000000e+000 -1.000000e+000 0.000000e+000
      outer loop
         vertex -1.319211e+000 -1.500000e+000 7.139211e-001
         vertex -1.418726e+000 -1.500000e+000 4.870492e-001
         vertex 1.500000e+000 -1.500000e+000 4.592426e-016
      endloop
   endfacet
   facet normal 0.000000e+000 -1.000000e+000 0.000000e+000
      outer loop
         vertex 1.500000e+000 -1.500000e+000 4.592426e-016
         vertex -1.418726e+000 -1.500000e+000 4.870492e-001
         vertex -1.479542e+000 -1.500000e+000 2.468919e-001
      endloop
   endfacet
   facet normal 0.000000e+000 -1.000000e+000 0.000000e+000
      outer loop
         vertex 1.500000e+000 -1.500000e+000 4.592426e-016
         vertex -1.479542e+000 -1.500000e+000 2.468919e-001
         vertex -1.500000e+000 -1.500000e+000 -2.755455e-016
      endloop
   endfacet
   facet normal 0.000000e+000 -1.000000e+000 0.000000e+000
      outer loop
         vertex 1.183711e+000 -1.500000e+000 9.213191e-001
         vertex 1.015922e+000 -1.500000e+000 1.103586e+000
         vertex -3.682282e-001 -1.500000e+000 1.454100e+000
      endloop
   endfacet
   facet normal 0.000000e+000 -1.000000e+000 0.000000e+000
      outer loop
         vertex -3.682282e-001 -1.500000e+000 1.454100e+000
         vertex 1.015922e+000 -1.500000e+000 1.103586e+000
         vertex 8.204222e-001 -1.500000e+000 1.255750e+000
      endloop
   endfacet
   facet normal 0.000000e+000 -1.000000e+000 0.000000e+000
      outer loop
         vertex -3.682282e-001 -1.500000e+000 1.454100e+000
         vertex 8.204222e-001 -1.500000e+000 1.255750e+000
         vertex 6.025431e-001 -1.500000e+000 1.373660e+000
      endloop
   endfacet
   facet normal 0.000000e+000 -1.000000e+000 0.000000e+000
      outer loop
         vertex 6.025431e-001 -1.500000e+000 1.373660e+000
         vertex 3.682282e-001 -1.500000e+000 1.454100e+000
         vertex -3.682282e-001 -1.500000e+000 1.454100e+000
      endloop
   endfacet
   facet normal 0.000000e+000 -1.000000e+000 0.000000e+000
      outer loop
         vertex -3.682282e-001 -1.500000e+000 1.454100e+000
         vertex 3.682282e-001 -1.500000e+000 1.454100e+000
         vertex 1.238690e-001 -1.500000e+000 1.494877e+000
      endloop
   endfacet
   facet normal 0.000000e+000 -1.000000e+000 0.000000e+000
      outer loop
         vertex -3.682282e-001 -1.500000e+000 1.454100e+000
         vertex 1.238690e-001 -1.500000e+000 1.494877e+000
         vertex -1.238690e-001 -1.500000e+000 1.494877e+000
      endloop
   endfacet
   facet normal 0.000000e+000 1.000000e+000 0.000000e+000
      outer loop
         vertex 1.500000e+000 1.500000e+000 4.592426e-016
         vertex -8.204222e-001 1.500000e+000 1.255750e+000
         vertex -6.025431e-001 1.500000e+000 1.373660e+000
      endloop
   endfacet
   facet normal 0.000000e+000 1.000000e+000 0.000000e+000
      outer loop
         vertex -6.025431e-001 1.500000e+000 1.373660e+000
         vertex -3.682282e-001 1.500000e+000 1.454100e+000
         vertex 1.500000e+000 1.500000e+000 4.592426e-016
      endloop
   endfacet
   facet normal 0.000000e+000 1.000000e+000 0.000000e+000
      outer loop
         vertex 1.500000e+000 1.500000e+000 4.592426e-016
         vertex -3.682282e-001 1.500000e+000 1.454100e+000
         vertex -1.238690e-001 1.500000e+000 1.494877e+000
      endloop
   endfacet
   facet normal 0.000000e+000 1.000000e+000 0.000000e+000
      outer loop
         vertex 1.500000e+000 1.500000e+000 4.592426e-016
         vertex -1.238690e-001 1.500000e+000 1.494877e+000
         vertex 1.238690e-001 1.500000e+000 1.494877e+000
      endloop
   endfacet
   facet normal 0.000000e+000 1.000000e+000 0.000000e+000
      outer loop
         vertex 1.238690e-001 1.500000e+000 1.494877e+000
         vertex 3.682282e-001 1.500000e+000 1.454100e+000
         vertex 1.500000e+000 1.500000e+000 4.592426e-016
      endloop
   endfacet
   facet normal 0.000000e+000 1.000000e+000 0.000000e+000
      outer loop
         vertex 1.500000e+000 1.500000e+000 4.592426e-016
         vertex 3.682282e-001 1.500000e+000 1.454100e+000
         vertex 6.025431e-001 1.500000e+000 1.373660e+000
      endloop
   endfacet
   facet normal 0.000000e+000 1.000000e+000 0.000000e+000
      outer loop
         vertex 1.500000e+000 1.500000e+000 4.592426e-016
         vertex 6.025431e-001 1.500000e+000 1.373660e+000
         vertex 8.204222e-001 1.500000e+000 1.255750e+000
      endloop
   endfacet
   facet normal 0.000000e+000 1.000000e+000 0.000000e+000
      outer loop
         vertex -1.500000e+000 1.500000e+000 -2.755455e-016
         vertex -1.479542e+000 1.500000e+000 2.468919e-001
         vertex 1.500000e+000 1.500000e+000 4.592426e-016
      endloop
   endfacet
   facet normal 0.000000e+000 1.000000e+000 0.000000e+000
      outer loop
         vertex 1.500000e+000 1.500000e+000 4.592426e-016
         vertex -1.479542e+000 1.500000e+000 2.468919e-001
         vertex -1.418726e+000 1.500000e+000 4.870492e-001
      endloop
   endfacet
   facet normal 0.000000e+000 1.000000e+000 0.000000e+000
      outer loop
         vertex 1.500000e+000 1.500000e+000 4.592426e-016
         vertex -1.418726e+000 1.500000e+000 4.870492e-001
         vertex -1.319211e+000 1.500000e+000 7.139211e-001
      endloop
   endfacet
   facet normal 0.000000e+000 1.000000e+000 0.000000e+000
      outer loop
         vertex -1.319211e+000 1.500000e+000 7.139211e-001
         vertex -1.183711e+000 1.500000e+000 9.213191e-001
         vertex 1.500000e+000 1.500000e+000 4.592426e-016
      endloop
   endfacet
   facet normal 0.000000e+000 1.000000e+000 0.000000e+000
      outer loop
         vertex 1.500000e+000 1.500000e+000 4.592426e-016
         vertex -1.183711e+000 1.500000e+000 9.213191e-001
         vertex -1.015922e+000 1.500000e+000 1.103586e+000
      endloop
   endfacet
   facet normal 0.000000e+000 1.000000e+000 0.000000e+000
      outer loop
         vertex 1.500000e+000 1.500000e+000 4.592426e-016
         vertex -1.015922e+000 1.500000e+000 1.103586e+000
         vertex -8.204222e-001 1.500000e+000 1.255750e+000
      endloop
   endfacet
   facet normal 0.000000e+000 1.000000e+000 0.000000e+000
      outer loop
         vertex 1.500000e+000 1.500000e+000 4.592426e-016
         vertex 1.319211e+000 1.500000e+000 7.139211e-001
         vertex 1.479542e+000 1.500000e+000 2.468919e-001
      endloop
   endfacet
   facet normal 0.000000e+000 1.000000e+000 0.000000e+000
      outer loop
         vertex 1.479542e+000 1.500000e+000 2.468919e-001
         vertex 1.319211e+000 1.500000e+000 7.139211e-001
         vertex 1.418726e+000 1.500000e+000 4.870492e-001
      endloop
   endfacet
   facet normal 0.000000e+000 1.000000e+000 0.000000e+000
      outer loop
         vertex 8.204222e-001 1.500000e+000 1.255750e+000
         vertex 1.015922e+000 1.500000e+000 1.103586e+000
         vertex 1.500000e+000 1.500000e+000 4.592426e-016
      endloop
   endfacet
   facet normal 0.000000e+000 1.000000e+000 0.000000e+000
      outer loop
         vertex 1.500000e+000 1.500000e+000 4.592426e-016
         vertex 1.015922e+000 1.500000e+000 1.103586e+000
         vertex 1.183711e+000 1.500000e+000 9.213191e-001
      endloop
   endfacet
   facet normal 0.000000e+000 1.000000e+000 0.000000e+000
      outer loop
         vertex 1.500000e+000 1.500000e+000 4.592426e-016
         vertex 1.183711e+000 1.500000e+000 9.213191e-001
         vertex 1.319211e+000 1.500000e+000 7.139211e-001
      endloop
   endfacet
endsolid